<?xml version="1.0" ?><svg id="Layer_1" style="enable-background:new 0 0 512 512;" version="1.1" viewBox="0 0 512 512" xml:space="preserve" xmlns="http://www.w3.org/2000/svg" xmlns:xlink="http://www.w3.org/1999/xlink"><style type="text/css">
	.st0{fill:#007BB6;}
</style><g id="XMLID_184_"><path class="st0" d="M130.5,289h53.8v173h-53.8V289z M157.5,203c17.2,0,31.2,14,31.2,31.2   c0,17.2-14,31.2-31.2,31.2c-17.3,0-31.2-14-31.2-31.2C126.3,217,140.2,203,157.5,203" id="XMLID_195_"/><path class="st0" d="M218.1,289h51.5v23.7h0.7c7.2-13.6,24.7-27.9,50.9-27.9c54.4,0,64.5,35.8,64.5,82.4V462H332   v-84.1c0-20.1-0.3-45.9-27.9-45.9c-28,0-32.2,21.9-32.2,44.4V462h-53.7V289z" id="XMLID_192_"/></g></svg>
