<?xml version="1.0" ?><svg id="Layer_1" style="enable-background:new 0 0 512 512;" version="1.1" viewBox="0 0 512 512" xml:space="preserve" xmlns="http://www.w3.org/2000/svg" xmlns:xlink="http://www.w3.org/1999/xlink"><style type="text/css">
	.st0{fill:url(#XMLID_2_);}
	.st1{fill:url(#XMLID_3_);}
	.st2{fill:url(#XMLID_4_);}
</style><g id="XMLID_138_"><radialGradient cx="201.7737" cy="461.3592" gradientUnits="userSpaceOnUse" id="XMLID_2_" r="261.1088"><stop offset="0" style="stop-color:#FFD776"/><stop offset="0.2463" style="stop-color:#F3A554"/><stop offset="0.3793" style="stop-color:#F15C3C"/><stop offset="0.5394" style="stop-color:#D94867"/><stop offset="0.6995" style="stop-color:#C32F87"/><stop offset="0.9122" style="stop-color:#7D63A7"/><stop offset="0.9852" style="stop-color:#5C6CB3"/></radialGradient><path class="st0" d="M378.7,247.7c-3.3-8.5-7.7-15.7-14.9-22.9c-7.2-7.2-14.4-11.6-22.9-14.9   c-8.2-3.2-17.7-5.4-31.4-6c-13.8-0.6-18.2-0.8-53.4-0.8s-39.6,0.1-53.4,0.8c-13.8,0.6-23.2,2.8-31.4,6c-8.5,3.3-15.7,7.7-22.9,14.9   c-7.2,7.2-11.6,14.4-14.9,22.9c-3.2,8.2-5.4,17.7-6,31.4c-0.6,13.8-0.8,18.2-0.8,53.4c0,35.2,0.1,39.6,0.8,53.4   c0.6,13.8,2.8,23.2,6,31.4c3.3,8.5,7.7,15.7,14.9,22.9c7.2,7.2,14.4,11.6,22.9,14.9c8.2,3.2,17.7,5.4,31.4,6   c13.8,0.6,18.2,0.8,53.4,0.8s39.6-0.1,53.4-0.8c13.8-0.6,23.2-2.8,31.4-6c8.5-3.3,15.7-7.7,22.9-14.9c7.2-7.2,11.6-14.4,14.9-22.9   c3.2-8.2,5.4-17.7,6-31.4c0.6-13.8,0.8-18.2,0.8-53.4s-0.1-39.6-0.8-53.4C384.1,265.3,381.9,255.9,378.7,247.7z M361.4,384.8   c-0.6,12.6-2.7,19.5-4.5,24c-2.3,6-5.2,10.4-9.7,14.9c-4.5,4.5-8.8,7.3-14.9,9.7c-4.6,1.8-11.4,3.9-24,4.5   c-13.7,0.6-17.7,0.8-52.3,0.8s-38.7-0.1-52.3-0.8c-12.6-0.6-19.5-2.7-24-4.5c-6-2.3-10.4-5.2-14.9-9.7c-4.5-4.5-7.3-8.8-9.7-14.9   c-1.8-4.6-3.9-11.4-4.5-24c-0.6-13.7-0.8-17.8-0.8-52.3s0.1-38.7,0.8-52.3c0.6-12.6,2.7-19.5,4.5-24c2.3-6,5.2-10.4,9.7-14.9   c4.5-4.5,8.8-7.3,14.9-9.7c4.6-1.8,11.4-3.9,24-4.5c13.7-0.6,17.8-0.8,52.3-0.8s38.7,0.1,52.3,0.8c12.6,0.6,19.5,2.7,24,4.5   c6,2.3,10.4,5.2,14.9,9.7c4.5,4.5,7.3,8.8,9.7,14.9c1.8,4.6,3.9,11.4,4.5,24c0.6,13.7,0.8,17.8,0.8,52.3S362,371.2,361.4,384.8z" id="XMLID_142_"/><radialGradient cx="228.1541" cy="398.6691" gradientUnits="userSpaceOnUse" id="XMLID_3_" r="134.0828"><stop offset="0" style="stop-color:#FFD776"/><stop offset="0.2463" style="stop-color:#F3A554"/><stop offset="0.3793" style="stop-color:#F15C3C"/><stop offset="0.607" style="stop-color:#D94867"/><stop offset="0.8346" style="stop-color:#C32F87"/><stop offset="0.9577" style="stop-color:#7D63A7"/><stop offset="1" style="stop-color:#5C6CB3"/></radialGradient><path class="st1" d="M256,266c-36.7,0-66.5,29.8-66.5,66.5c0,36.7,29.8,66.5,66.5,66.5s66.5-29.8,66.5-66.5   C322.5,295.8,292.7,266,256,266z M256,375.7c-23.8,0-43.2-19.3-43.2-43.2c0-23.8,19.3-43.2,43.2-43.2s43.2,19.3,43.2,43.2   C299.2,356.3,279.8,375.7,256,375.7z" id="XMLID_145_"/><radialGradient cx="318.6223" cy="278.8304" gradientUnits="userSpaceOnUse" id="XMLID_4_" r="31.333"><stop offset="0" style="stop-color:#5F6DB3"/><stop offset="1" style="stop-color:#5C6CB3"/></radialGradient><circle class="st2" cx="325.1" cy="263.4" id="XMLID_143_" r="15.5"/></g></svg>